<svg xmlns="http://www.w3.org/2000/svg" viewBox="0 0 96 96" width="96" height="96" fill="none" aria-hidden="true">
  <circle cx="48" cy="48" r="48" fill="#2C5F5F" />
  <g transform="translate(20 20) scale(0.18855218855218855)">
    <path
      fill="#ffffff"
      d="M241.583,0c-11.046,0-20,8.954-20,20v52.416c0,33.364-22.48,61.556-53.083,70.279V40h3c11.046,0,20-8.954,20-20s-8.954-20-20-20h-46c-11.046,0-20,8.954-20,20s8.954,20,20,20h3v102.695c-30.603-8.722-53.084-36.915-53.084-70.279V20c0-11.046-8.954-20-20-20s-20,8.954-20,20v52.416c0,55.532,40.235,101.843,93.084,111.313V257h-3c-11.046,0-20,8.954-20,20s8.954,20,20,20h46c11.046,0,20-8.954,20-20s-8.954-20-20-20h-3v-73.271c52.848-9.471,93.083-55.782,93.083-111.313V20C261.583,8.954,252.629,0,241.583,0z"
    />
  </g>
</svg>
